<svg width="160" height="36" viewBox="0 0 160 36" fill="none" xmlns="http://www.w3.org/2000/svg">
<mask id="mask0_1074_50" style="mask-type:alpha" maskUnits="userSpaceOnUse" x="0" y="0" width="160" height="36">
<rect width="160" height="36" fill="#D9D9D9"/>
</mask>
<g mask="url(#mask0_1074_50)">
<rect width="36" height="36" fill="#CCCBD0"/>
<path d="M36.4326 -0.25L57.2178 35.7@5L57.6504 36.5H14.3496L14.7822 35.75L35.5674 -0.25L36 -1L36.4326 -0.25Z" fill="#472CDF" stroke="white"/>
<path d="M64.392 26H61.5966L67.8778 8.54545H70.9205L77.2017 26H74.4062L69.4716 11.7159H69.3352L64.392 26ZM64.8608 19.1648H73.929V21.3807H64.8608V19.1648ZM83.861 26.2642C82.594 26.2642 81.5031 25.9773 80.5883 25.4034C79.6792 24.8239 78.9803 24.0256 78.4917 23.0085C78.0031 21.9915 77.7587 20.8267 77.7587 19.5142C77.7587 18.1847 78.0087 17.0114 78.5087 15.9943C79.0087 14.9716 79.7133 14.1733 80.6224 13.5994C81.5315 13.0256 82.6025 12.7386 83.8355 12.7386C84.8298 12.7386 85.7161 12.9233 86.4945 13.2926C87.273 13.6562 87.9008 14.1676 88.3781 14.8267C88.861 15.4858 89.148 16.2557 89.2389 17.1364H86.7587C86.6224 16.5227 86.3099 15.9943 85.8212 15.5511C85.3383 15.108 84.6906 14.8864 83.8781 14.8864C83.1678 14.8864 82.5457 15.0739 82.0116 15.4489C81.4832 15.8182 81.0713 16.3466 80.7758 17.0341C80.4803 17.7159 80.3326 18.5227 80.3326 19.4545C80.3326 20.4091 80.4775 21.233 80.7673 21.9261C81.057 22.6193 81.4661 23.1562 81.9945 23.5369C82.5286 23.9176 83.1565 24.108 83.8781 24.108C84.361 24.108 84.7985 24.0199 85.1906 23.8438C85.5883 23.6619 85.9207 23.4034 86.1877 23.0682C86.4605 22.733 86.6508 22.3295 86.7587 21.858H89.2389C89.148 22.7045 88.8724 23.4602 88.4122 24.125C87.9519 24.7898 87.3355 25.3125 86.5627 25.6932C85.7957 26.0739 84.8951 26.2642 83.861 26.2642ZM91.004 26V12.9091H93.45V15.0398H93.612C93.8847 14.3182 94.3307 13.7557 94.95 13.3523C95.5693 12.9432 96.3108 12.7386 97.1745 12.7386C98.0495 12.7386 98.7824 12.9432 99.3733 13.3523C99.9699 13.7614 100.41 14.3239 100.694 15.0398H100.831C101.143 14.3409 101.64 13.7841 102.322 13.3693C103.004 12.9489 103.817 12.7386 104.76 12.7386C105.947 12.7386 106.916 13.1108 107.666 13.8551C108.422 14.5994 108.799 15.7216 108.799 17.2216V26H106.251V17.4602C106.251 16.5739 106.01 15.9318 105.527 15.5341C105.044 15.1364 104.467 14.9375 103.797 14.9375C102.967 14.9375 102.322 15.1932 101.862 15.7045C101.402 16.2102 101.172 16.8608 101.172 17.6562V26H98.6318V17.2983C98.6318 16.5881 98.4103 16.017 97.9671 15.5852C97.5239 15.1534 96.9472 14.9375 96.237 14.9375C95.754 14.9375 95.308 15.0653 94.8989 15.321C94.4955 15.571 94.1688 15.9205 93.9188 16.3693C93.6745 16.8182 93.5523 17.3381 93.5523 17.929V26H91.004ZM116.897 26.2642C115.607 26.2642 114.496 25.9886 113.565 25.4375C112.638 24.8807 111.923 24.0994 111.417 23.0938C110.917 22.0824 110.667 20.8977 110.667 19.5398C110.667 18.1989 110.917 17.017 111.417 15.9943C111.923 14.9716 112.627 14.1733 113.531 13.5994C114.44 13.0256 115.502 12.7386 116.718 12.7386C117.457 12.7386 118.173 12.8608 118.866 13.1051C119.559 13.3494 120.181 13.733 120.732 14.2557C121.283 14.7784 121.718 15.4574 122.036 16.2926C122.354 17.1222 122.513 18.1307 122.513 19.3182V20.2216H112.107V18.3125H120.016C120.016 17.642 119.88 17.0483 119.607 16.5312C119.334 16.0085 118.951 15.5966 118.457 15.2955C117.968 14.9943 117.394 14.8438 116.735 14.8438C116.019 14.8438 115.394 15.0199 114.86 15.3722C114.332 15.7187 113.923 16.1733 113.633 16.7358C113.349 17.2926 113.207 17.8977 113.207 18.5511V20.0426C113.207 20.9176 113.36 21.6619 113.667 22.2756C113.979 22.8892 114.414 23.358 114.971 23.6818C115.528 24 116.178 24.1591 116.923 24.1591C117.406 24.1591 117.846 24.0909 118.244 23.9545C118.641 23.8125 118.985 23.6023 119.275 23.3239C119.565 23.0455 119.786 22.7017 119.94 22.2926L122.352 22.7273C122.158 23.4375 121.812 24.0597 121.312 24.5938C120.817 25.1222 120.195 25.5341 119.445 25.8295C118.701 26.1193 117.852 26.2642 116.897 26.2642ZM132.611 8.54545V26H129.977V8.54545H132.611ZM137.829 18.2273V26H135.281V12.9091H137.727V15.0398H137.889C138.19 14.3466 138.662 13.7898 139.304 13.3693C139.952 12.9489 140.767 12.7386 141.75 12.7386C142.642 12.7386 143.423 12.9261 144.094 13.3011C144.764 13.6705 145.284 14.2216 145.653 14.9545C146.023 15.6875 146.207 16.5937 146.207 17.6733V26H143.659V17.9801C143.659 17.0312 143.412 16.2898 142.918 15.7557C142.423 15.2159 141.744 14.946 140.881 14.946C140.29 14.946 139.764 15.0739 139.304 15.3295C138.849 15.5852 138.489 15.9602 138.222 16.4545C137.96 16.9432 137.829 17.5341 137.829 18.2273ZM154.179 26.2642C152.912 26.2642 151.821 25.9773 150.906 25.4034C149.997 24.8239 149.298 24.0256 148.81 23.0085C148.321 21.9915 148.077 20.8267 148.077 19.5142C148.077 18.1847 148.327 17.0114 148.827 15.9943C149.327 14.9716 150.031 14.1733 150.941 13.5994C151.85 13.0256 152.921 12.7386 154.154 12.7386C155.148 12.7386 156.034 12.9233 156.813 13.2926C157.591 13.6562 158.219 14.1676 158.696 14.8267C159.179 15.4858 159.466 16.2557 159.557 17.1364H157.077C156.941 16.5227 156.628 15.9943 156.139 15.5511C155.656 15.108 155.009 14.8864 154.196 14.8864C153.486 14.8864 152.864 15.0739 152.33 15.4489C151.801 15.8182 151.389 16.3466 151.094 17.0341C150.798 17.7159 150.651 18.5227 150.651 19.4545C150.651 20.4091 150.796 21.233 151.085 21.9261C151.375 22.6193 151.784 23.1562 152.313 23.5369C152.847 23.9176 153.475 24.108 154.196 24.108C154.679 24.108 155.117 24.0199 155.509 23.8438C155.906 23.6619 156.239 23.4034 156.506 23.0682C156.779 22.733 156.969 22.3295 157.077 21.858H159.557C159.466 22.7045 159.191 23.4602 158.73 24.125C158.27 24.7898 157.654 25.3125 156.881 25.6932C156.114 26.0739 155.213 26.2642 154.179 26.2642Z" fill="black"/>
</g>
</svg>
